{"asset":{"version":"2.0","generator":"pv2gltf","copyright":""},"samplers":[{"magFilter":9729,"minFilter":9986,"wrapS":10497,"wrapT":10497}],"materials":[{"name":"material_0","pbrMetallicRoughness":{"baseColorFactor":[0.64000004529953,0.64000004529953,0.64000004529953,1.0],"metallicFactor":0.5,"roughnessFactor":0.5},"doubleSided":true}],"buffers":[{"uri":"VR_simple.bin","byteLength":214272}],"bufferViews":[{"buffer":0,"byteOffset":0,"byteLength":134928,"byteStride":12,"target":34962},{"buffer":0,"byteOffset":134928,"byteLength":44976,"byteStride":8,"target":34962},{"buffer":0,"byteOffset":179904,"byteLength":34368,"target":34963}],"accessors":[{"bufferView":0,"byteOffset":0,"componentType":5126,"count":5622,"type":"VEC3","min":[-1.4634015560150147,-0.7441899180412293,-3.112586259841919],"max":[1.4634015560150147,1.8954099416732789,1.3405681848526]},{"bufferView":0,"byteOffset":67464,"componentType":5126,"count":5622,"type":"VEC3"},{"bufferView":1,"byteOffset":0,"componentType":5126,"count":5622,"type":"VEC2"},{"bufferView":2,"byteOffset":0,"componentType":5123,"count":17184,"type":"SCALAR"}],"meshes":[{"name":"Body","primitives":[{"attributes":{"NORMAL":1,"POSITION":0,"TEXCOORD_0":2},"indices":3,"mode":4,"material":0}]}],"nodes":[{"name":"Body","mesh":0,"matrix":[1.0,0.0,0.0,0.0,0.0,1.0,0.0,0.0,0.0,0.0,1.0,0.0,0.0,0.0,-0.46846710205078126,1.0],"extras":{"id":"37"}},{"name":"VR_simple","children":[0]}],"scenes":[{"nodes":[1]}],"scene":0}