{"asset":{"version":"2.0","generator":"pv2gltf","copyright":""},"samplers":[{"magFilter":9729,"minFilter":9986,"wrapS":10497,"wrapT":10497}],"materials":[{"name":"__pv_default_material_0__","pbrMetallicRoughness":{"baseColorFactor":[0.6800000071525574,0.6800000071525574,0.6800000071525574,1.0],"metallicFactor":0.5,"roughnessFactor":0.5},"doubleSided":true}],"buffers":[{"uri":"book_2.bin","byteLength":7568},{"uri":"book_3.bin","byteLength":101120},{"uri":"book_4.bin","byteLength":60224}],"bufferViews":[{"buffer":0,"byteOffset":0,"byteLength":4560,"byteStride":12,"target":34962},{"buffer":0,"byteOffset":4560,"byteLength":1520,"byteStride":8,"target":34962},{"buffer":0,"byteOffset":6080,"byteLength":1488,"target":34963},{"buffer":1,"byteOffset":0,"byteLength":56112,"byteStride":12,"target":34962},{"buffer":1,"byteOffset":56112,"byteLength":18704,"byteStride":8,"target":34962},{"buffer":1,"byteOffset":74816,"byteLength":26304,"target":34963},{"buffer":2,"byteOffset":0,"byteLength":33648,"byteStride":12,"target":34962},{"buffer":2,"byteOffset":33648,"byteLength":11216,"byteStride":8,"target":34962},{"buffer":2,"byteOffset":44864,"byteLength":15360,"target":34963}],"accessors":[{"bufferView":0,"byteOffset":0,"componentType":5126,"count":190,"type":"VEC3","min":[-1.0505650043487549,-1.310703992843628,-0.2045390009880066],"max":[-1.0,1.310703992843628,0.2045390009880066]},{"bufferView":0,"byteOffset":2280,"componentType":5126,"count":190,"type":"VEC3"},{"bufferView":1,"byteOffset":0,"componentType":5126,"count":190,"type":"VEC2"},{"bufferView":2,"byteOffset":0,"componentType":5123,"count":744,"type":"SCALAR"},{"bufferView":3,"byteOffset":0,"componentType":5126,"count":2338,"type":"VEC3","min":[-1.0761229991912842,-1.3459019660949708,-0.24431799352169038],"max":[1.0501099824905396,1.3459019660949708,0.24431799352169038]},{"bufferView":3,"byteOffset":28056,"componentType":5126,"count":2338,"type":"VEC3"},{"bufferView":4,"byteOffset":0,"componentType":5126,"count":2338,"type":"VEC2"},{"bufferView":5,"byteOffset":0,"componentType":5123,"count":13152,"type":"SCALAR"},{"bufferView":6,"byteOffset":0,"componentType":5126,"count":1402,"type":"VEC3","min":[-1.030532956123352,-1.3000010251998902,-0.21053799986839295],"max":[0.9988160133361816,1.3000010251998902,0.21053799986839295]},{"bufferView":6,"byteOffset":16824,"componentType":5126,"count":1402,"type":"VEC3"},{"bufferView":7,"byteOffset":0,"componentType":5126,"count":1402,"type":"VEC2"},{"bufferView":8,"byteOffset":0,"componentType":5123,"count":7680,"type":"SCALAR"}],"meshes":[{"name":"binding_binding","primitives":[{"attributes":{"NORMAL":1,"POSITION":0,"TEXCOORD_0":2},"indices":3,"mode":4,"material":0}]},{"name":"cover_cover","primitives":[{"attributes":{"NORMAL":5,"POSITION":4,"TEXCOORD_0":6},"indices":7,"mode":4,"material":0}]},{"name":"pages_pages","primitives":[{"attributes":{"NORMAL":9,"POSITION":8,"TEXCOORD_0":10},"indices":11,"mode":4,"material":0}]}],"nodes":[{"name":"binding_binding","mesh":0},{"name":"cover_cover","mesh":1},{"name":"pages_pages","mesh":2},{"name":"book","children":[0,1,2]}],"scenes":[{"nodes":[3]}],"scene":0}