{"asset":{"version":"2.0","generator":"pv2gltf","copyright":""},"samplers":[{"magFilter":9729,"minFilter":9986,"wrapS":10497,"wrapT":10497}],"materials":[{"name":"__pv_default_material_0__","pbrMetallicRoughness":{"baseColorFactor":[0.6800000071525574,0.6800000071525574,0.6800000071525574,1.0],"metallicFactor":0.5,"roughnessFactor":0.5},"doubleSided":true}],"buffers":[{"uri":"predator_a_obj.bin","byteLength":226500}],"bufferViews":[{"buffer":0,"byteOffset":0,"byteLength":164784,"byteStride":12,"target":34962},{"buffer":0,"byteOffset":164784,"byteLength":61716,"target":34963}],"accessors":[{"bufferView":0,"byteOffset":0,"componentType":5126,"count":6866,"type":"VEC3","min":[-427.1680908203125,4.208000183105469,-210.9799041748047],"max":[429.0338134765625,156.22549438476563,311.6874084472656]},{"bufferView":0,"byteOffset":82392,"componentType":5126,"count":6866,"type":"VEC3"},{"bufferView":1,"byteOffset":0,"componentType":5123,"count":30858,"type":"SCALAR"}],"meshes":[{"name":"predator_a_obj","primitives":[{"attributes":{"NORMAL":1,"POSITION":0},"indices":2,"mode":4,"material":0}]}],"nodes":[{"name":"predator_a_obj","mesh":0}],"scenes":[{"nodes":[0]}],"scene":0}