{"asset":{"version":"2.0","generator":"pv2gltf","copyright":""},"samplers":[{"magFilter":9729,"minFilter":9986,"wrapS":10497,"wrapT":10497}],"materials":[{"name":"__pv_default_material_0__","pbrMetallicRoughness":{"baseColorFactor":[0.6800000071525574,0.6800000071525574,0.6800000071525574,1.0],"metallicFactor":0.5,"roughnessFactor":0.5},"doubleSided":true}],"buffers":[{"uri":"GingerbreadManOBJ.bin","byteLength":1330588}],"bufferViews":[{"buffer":0,"byteOffset":0,"byteLength":16320,"byteStride":12,"target":34962},{"buffer":0,"byteOffset":16320,"byteLength":3936,"target":34963},{"buffer":0,"byteOffset":20256,"byteLength":737688,"byteStride":12,"target":34962},{"buffer":0,"byteOffset":757944,"byteLength":245896,"byteStride":8,"target":34962},{"buffer":0,"byteOffset":1003840,"byteLength":326748,"target":34963}],"accessors":[{"bufferView":0,"byteOffset":0,"componentType":5126,"count":680,"type":"VEC3","min":[-172.2884521484375,-202.7952880859375,7.385976791381836],"max":[172.46908569335938,242.2788543701172,17.564346313476564]},{"bufferView":0,"byteOffset":8160,"componentType":5126,"count":680,"type":"VEC3"},{"bufferView":1,"byteOffset":0,"componentType":5123,"count":1968,"type":"SCALAR"},{"bufferView":2,"byteOffset":0,"componentType":5126,"count":30737,"type":"VEC3","min":[-216.99705505371095,-267.7045593261719,-36.0571174621582],"max":[216.99705505371095,282.2092590332031,20.566818237304689]},{"bufferView":2,"byteOffset":368844,"componentType":5126,"count":30737,"type":"VEC3"},{"bufferView":3,"byteOffset":0,"componentType":5126,"count":30737,"type":"VEC2"},{"bufferView":4,"byteOffset":0,"componentType":5123,"count":163374,"type":"SCALAR"}],"meshes":[{"name":"GingerbreadManOBJ","primitives":[{"attributes":{"NORMAL":1,"POSITION":0},"indices":2,"mode":4,"material":0},{"attributes":{"NORMAL":4,"POSITION":3,"TEXCOORD_0":5},"indices":6,"mode":4,"material":0}]}],"nodes":[{"name":"GingerbreadManOBJ","mesh":0}],"scenes":[{"nodes":[0]}],"scene":0}