{"asset":{"version":"2.0","generator":"pv2gltf","copyright":""},"samplers":[{"magFilter":9729,"minFilter":9986,"wrapS":10497,"wrapT":10497}],"materials":[{"name":"__pv_default_material_0__","pbrMetallicRoughness":{"baseColorFactor":[0.6800000071525574,0.6800000071525574,0.6800000071525574,1.0],"metallicFactor":0.5,"roughnessFactor":0.5},"doubleSided":true}],"buffers":[{"uri":"Security Hook.bin","byteLength":318288}],"bufferViews":[{"buffer":0,"byteOffset":0,"byteLength":176256,"byteStride":12,"target":34962},{"buffer":0,"byteOffset":176256,"byteLength":58752,"byteStride":8,"target":34962},{"buffer":0,"byteOffset":235008,"byteLength":83280,"target":34963}],"accessors":[{"bufferView":0,"byteOffset":0,"componentType":5126,"count":7344,"type":"VEC3","min":[-94.01538848876953,-166.83644104003907,-24.709665298461915],"max":[94.01538848876953,143.97955322265626,24.70966339111328]},{"bufferView":0,"byteOffset":88128,"componentType":5126,"count":7344,"type":"VEC3"},{"bufferView":1,"byteOffset":0,"componentType":5126,"count":7344,"type":"VEC2"},{"bufferView":2,"byteOffset":0,"componentType":5123,"count":41640,"type":"SCALAR"}],"meshes":[{"name":"Security Hook","primitives":[{"attributes":{"NORMAL":1,"POSITION":0,"TEXCOORD_0":2},"indices":3,"mode":4,"material":0}]}],"nodes":[{"name":"Security Hook","mesh":0}],"scenes":[{"nodes":[0]}],"scene":0}