{"asset":{"version":"2.0","generator":"pv2gltf","copyright":""},"samplers":[{"magFilter":9729,"minFilter":9986,"wrapS":10497,"wrapT":10497}],"materials":[{"name":"__pv_default_material_0__","pbrMetallicRoughness":{"baseColorFactor":[0.6800000071525574,0.6800000071525574,0.6800000071525574,1.0],"metallicFactor":0.5,"roughnessFactor":0.5},"doubleSided":true}],"buffers":[{"uri":"JOSSTYC_LOW_POLIGS_2.bin","byteLength":5427532},{"uri":"JOSSTYC_LOW_POLIGS_3.bin","byteLength":3888},{"uri":"JOSSTYC_LOW_POLIGS_4.bin","byteLength":3888},{"uri":"JOSSTYC_LOW_POLIGS_5.bin","byteLength":3888},{"uri":"JOSSTYC_LOW_POLIGS_6.bin","byteLength":4928},{"uri":"JOSSTYC_LOW_POLIGS_7.bin","byteLength":648}],"bufferViews":[{"buffer":0,"byteOffset":0,"byteLength":1572864,"byteStride":12,"target":34962},{"buffer":0,"byteOffset":1572864,"byteLength":762156,"target":34963},{"buffer":0,"byteOffset":2335020,"byteLength":1572864,"byteStride":12,"target":34962},{"buffer":0,"byteOffset":3907884,"byteLength":758564,"target":34963},{"buffer":0,"byteOffset":4666448,"byteLength":512328,"byteStride":12,"target":34962},{"buffer":0,"byteOffset":5178776,"byteLength":248756,"target":34963},{"buffer":1,"byteOffset":0,"byteLength":3120,"byteStride":12,"target":34962},{"buffer":1,"byteOffset":3120,"byteLength":768,"target":34963},{"buffer":2,"byteOffset":0,"byteLength":3120,"byteStride":12,"target":34962},{"buffer":2,"byteOffset":3120,"byteLength":768,"target":34963},{"buffer":3,"byteOffset":0,"byteLength":3120,"byteStride":12,"target":34962},{"buffer":3,"byteOffset":3120,"byteLength":768,"target":34963},{"buffer":4,"byteOffset":0,"byteLength":3120,"byteStride":12,"target":34962},{"buffer":4,"byteOffset":3120,"byteLength":1040,"byteStride":8,"target":34962},{"buffer":4,"byteOffset":4160,"byteLength":768,"target":34963},{"buffer":5,"byteOffset":0,"byteLength":576,"byteStride":12,"target":34962},{"buffer":5,"byteOffset":576,"byteLength":72,"target":34963}],"accessors":[{"bufferView":0,"byteOffset":0,"componentType":5126,"count":65536,"type":"VEC3","min":[-1.6119879484176636,-1.9937950372695923,-5.627760887145996],"max":[1.2197259664535523,1.964797019958496,4.082118034362793]},{"bufferView":0,"byteOffset":786432,"componentType":5126,"count":65536,"type":"VEC3"},{"bufferView":1,"byteOffset":0,"componentType":5123,"count":381078,"type":"SCALAR"},{"bufferView":2,"byteOffset":0,"componentType":5126,"count":65536,"type":"VEC3","min":[-1.6234320402145386,-1.9713799953460694,-5.641830921173096],"max":[1.2237119674682618,1.9854660034179688,4.081157207489014]},{"bufferView":2,"byteOffset":786432,"componentType":5126,"count":65536,"type":"VEC3"},{"bufferView":3,"byteOffset":0,"componentType":5123,"count":379281,"type":"SCALAR"},{"bufferView":4,"byteOffset":0,"componentType":5126,"count":21347,"type":"VEC3","min":[-1.307134985923767,-1.9569209814071656,-5.312716007232666],"max":[0.7769730091094971,1.9803309440612794,4.022853851318359]},{"bufferView":4,"byteOffset":256164,"componentType":5126,"count":21347,"type":"VEC3"},{"bufferView":5,"byteOffset":0,"componentType":5123,"count":124377,"type":"SCALAR"},{"bufferView":6,"byteOffset":0,"componentType":5126,"count":130,"type":"VEC3","min":[0.03882800042629242,-0.32403600215911868,-2.757049083709717],"max":[1.1115100383758546,1.4069759845733643,-1.0465459823608399]},{"bufferView":6,"byteOffset":1560,"componentType":5126,"count":130,"type":"VEC3"},{"bufferView":7,"byteOffset":0,"componentType":5123,"count":384,"type":"SCALAR"},{"bufferView":8,"byteOffset":0,"componentType":5126,"count":130,"type":"VEC3","min":[-0.034657999873161319,-0.2377309948205948,-0.11895100027322769],"max":[1.0380229949951172,1.4932810068130494,1.5915520191192628]},{"bufferView":8,"byteOffset":1560,"componentType":5126,"count":130,"type":"VEC3"},{"bufferView":9,"byteOffset":0,"componentType":5123,"count":384,"type":"SCALAR"},{"bufferView":10,"byteOffset":0,"componentType":5126,"count":130,"type":"VEC3","min":[-0.7090839743614197,0.20532700419425965,0.7818340063095093],"max":[1.0091990232467652,2.978163003921509,3.5218169689178469]},{"bufferView":10,"byteOffset":1560,"componentType":5126,"count":130,"type":"VEC3"},{"bufferView":11,"byteOffset":0,"componentType":5123,"count":384,"type":"SCALAR"},{"bufferView":12,"byteOffset":0,"componentType":5126,"count":130,"type":"VEC3","min":[-0.7090839743614197,0.18202899396419526,-4.737586975097656],"max":[1.0091990232467652,2.954864978790283,-1.9976040124893189]},{"bufferView":12,"byteOffset":1560,"componentType":5126,"count":130,"type":"VEC3"},{"bufferView":13,"byteOffset":0,"componentType":5126,"count":130,"type":"VEC2"},{"bufferView":14,"byteOffset":0,"componentType":5123,"count":384,"type":"SCALAR"},{"bufferView":15,"byteOffset":0,"componentType":5126,"count":24,"type":"VEC3","min":[-0.9682459831237793,0.22754999995231629,-3.812040090560913],"max":[0.9682459831237793,2.2275500297546388,2.521620988845825]},{"bufferView":15,"byteOffset":288,"componentType":5126,"count":24,"type":"VEC3"},{"bufferView":16,"byteOffset":0,"componentType":5123,"count":36,"type":"SCALAR"}],"meshes":[{"name":"Cube.001_Cube.004","primitives":[{"attributes":{"NORMAL":1,"POSITION":0},"indices":2,"mode":4,"material":0},{"attributes":{"NORMAL":4,"POSITION":3},"indices":5,"mode":4,"material":0},{"attributes":{"NORMAL":7,"POSITION":6},"indices":8,"mode":4,"material":0}]},{"name":"Cylinder.003_Cylinder.004","primitives":[{"attributes":{"NORMAL":10,"POSITION":9},"indices":11,"mode":4,"material":0}]},{"name":"Cylinder.002_Cylinder.003","primitives":[{"attributes":{"NORMAL":13,"POSITION":12},"indices":14,"mode":4,"material":0}]},{"name":"Cylinder.001","primitives":[{"attributes":{"NORMAL":16,"POSITION":15},"indices":17,"mode":4,"material":0}]},{"name":"Cylinder","primitives":[{"attributes":{"NORMAL":19,"POSITION":18,"TEXCOORD_0":20},"indices":21,"mode":4,"material":0}]},{"name":"Cube_Cube.001","primitives":[{"attributes":{"NORMAL":23,"POSITION":22},"indices":24,"mode":4,"material":0}]}],"nodes":[{"name":"Cube.001_Cube.004","mesh":0},{"name":"Cylinder.003_Cylinder.004","mesh":1},{"name":"Cylinder.002_Cylinder.003","mesh":2},{"name":"Cylinder.001","mesh":3},{"name":"Cylinder","mesh":4},{"name":"Cube_Cube.001","mesh":5},{"name":"JOSSTYC_LOW_POLIGS","children":[0,1,2,3,4,5]}],"scenes":[{"nodes":[6]}],"scene":0}