{"asset":{"version":"2.0","generator":"pv2gltf","copyright":""},"samplers":[{"magFilter":9729,"minFilter":9986,"wrapS":10497,"wrapT":10497}],"materials":[{"name":"__pv_default_material_0__","pbrMetallicRoughness":{"baseColorFactor":[0.6800000071525574,0.6800000071525574,0.6800000071525574,1.0],"metallicFactor":0.5,"roughnessFactor":0.5},"doubleSided":true}],"buffers":[{"uri":"cartoon_flower_2.bin","byteLength":25848}],"bufferViews":[{"buffer":0,"byteOffset":0,"byteLength":17352,"byteStride":12,"target":34962},{"buffer":0,"byteOffset":17352,"byteLength":8496,"target":34963}],"accessors":[{"bufferView":0,"byteOffset":0,"componentType":5126,"count":723,"type":"VEC3","min":[-0.11367899924516678,0.0,-0.03347399830818176],"max":[0.10965900123119354,0.36583900451660159,0.057401999831199649]},{"bufferView":0,"byteOffset":8676,"componentType":5126,"count":723,"type":"VEC3"},{"bufferView":1,"byteOffset":0,"componentType":5123,"count":4248,"type":"SCALAR"}],"meshes":[{"name":"flower","primitives":[{"attributes":{"NORMAL":1,"POSITION":0},"indices":2,"mode":4,"material":0}]}],"nodes":[{"name":"flower","mesh":0},{"name":"cartoon_flower","children":[0]}],"scenes":[{"nodes":[1]}],"scene":0}