{"asset":{"version":"2.0","generator":"pv2gltf","copyright":""},"samplers":[{"magFilter":9729,"minFilter":9986,"wrapS":10497,"wrapT":10497}],"materials":[{"name":"__pv_default_material_0__","pbrMetallicRoughness":{"baseColorFactor":[0.6800000071525574,0.6800000071525574,0.6800000071525574,1.0],"metallicFactor":0.5,"roughnessFactor":0.5},"doubleSided":true}],"buffers":[{"uri":"Stetoscope.bin","byteLength":995400}],"bufferViews":[{"buffer":0,"byteOffset":0,"byteLength":112368,"byteStride":12,"target":34962},{"buffer":0,"byteOffset":112368,"byteLength":55944,"target":34963},{"buffer":0,"byteOffset":168312,"byteLength":457272,"byteStride":12,"target":34962},{"buffer":0,"byteOffset":625584,"byteLength":152424,"byteStride":8,"target":34962},{"buffer":0,"byteOffset":778008,"byteLength":217392,"target":34963}],"accessors":[{"bufferView":0,"byteOffset":0,"componentType":5126,"count":4682,"type":"VEC3","min":[-18.06399917602539,-0.0010999999940395356,10.072699546813965],"max":[-13.150699615478516,2.2000999450683595,18.024999618530275]},{"bufferView":0,"byteOffset":56184,"componentType":5126,"count":4682,"type":"VEC3"},{"bufferView":1,"byteOffset":0,"componentType":5123,"count":27972,"type":"SCALAR"},{"bufferView":2,"byteOffset":0,"componentType":5126,"count":19053,"type":"VEC3","min":[-17.018600463867189,-0.009100000374019146,-17.512300491333009],"max":[18.283599853515626,3.178299903869629,16.23979949951172]},{"bufferView":2,"byteOffset":228636,"componentType":5126,"count":19053,"type":"VEC3"},{"bufferView":3,"byteOffset":0,"componentType":5126,"count":19053,"type":"VEC2"},{"bufferView":4,"byteOffset":0,"componentType":5123,"count":108696,"type":"SCALAR"}],"meshes":[{"name":"Stetoscope","primitives":[{"attributes":{"NORMAL":1,"POSITION":0},"indices":2,"mode":4,"material":0},{"attributes":{"NORMAL":4,"POSITION":3,"TEXCOORD_0":5},"indices":6,"mode":4,"material":0}]}],"nodes":[{"name":"Stetoscope","mesh":0}],"scenes":[{"nodes":[0]}],"scene":0}