{"asset":{"version":"2.0","generator":"pv2gltf","copyright":""},"samplers":[{"magFilter":9729,"minFilter":9986,"wrapS":10497,"wrapT":10497}],"materials":[{"name":"material_0","pbrMetallicRoughness":{"baseColorFactor":[0.4000000059604645,0.4000000059604645,0.4000000059604645,1.0],"metallicFactor":0.5,"roughnessFactor":0.5},"doubleSided":true}],"buffers":[{"uri":"FbxFlag.bin","byteLength":9376},{"uri":"FbxFlag_2.bin","byteLength":5600},{"uri":"FbxFlag_3.bin","byteLength":12416}],"bufferViews":[{"buffer":0,"byteOffset":0,"byteLength":5952,"byteStride":12,"target":34962},{"buffer":0,"byteOffset":5952,"byteLength":1984,"byteStride":8,"target":34962},{"buffer":0,"byteOffset":7936,"byteLength":1440,"target":34963},{"buffer":1,"byteOffset":0,"byteLength":3480,"byteStride":12,"target":34962},{"buffer":1,"byteOffset":3480,"byteLength":1160,"byteStride":8,"target":34962},{"buffer":1,"byteOffset":4640,"byteLength":960,"target":34963},{"buffer":2,"byteOffset":0,"byteLength":7008,"byteStride":12,"target":34962},{"buffer":2,"byteOffset":7008,"byteLength":2336,"byteStride":8,"target":34962},{"buffer":2,"byteOffset":9344,"byteLength":3072,"target":34963}],"accessors":[{"bufferView":0,"byteOffset":0,"componentType":5126,"count":248,"type":"VEC3","min":[-0.013096923939883709,-0.010679931379854679,-0.013135986402630806],"max":[0.012979431077837944,0.007845458574593068,0.012940063141286374]},{"bufferView":0,"byteOffset":2976,"componentType":5126,"count":248,"type":"VEC3"},{"bufferView":1,"byteOffset":0,"componentType":5126,"count":248,"type":"VEC2"},{"bufferView":2,"byteOffset":0,"componentType":5123,"count":720,"type":"SCALAR"},{"bufferView":3,"byteOffset":0,"componentType":5126,"count":145,"type":"VEC3","min":[-0.0031980513595044615,-0.006219339091330767,-0.0032204771414399149],"max":[0.0030444334261119367,0.24816277623176576,0.003024415811523795]},{"bufferView":3,"byteOffset":1740,"componentType":5126,"count":145,"type":"VEC3"},{"bufferView":4,"byteOffset":0,"componentType":5126,"count":145,"type":"VEC2"},{"bufferView":5,"byteOffset":0,"componentType":5123,"count":480,"type":"SCALAR"},{"bufferView":6,"byteOffset":0,"componentType":5126,"count":292,"type":"VEC3","min":[0.00318145751953125,0.10670532286167145,-0.024259643629193307],"max":[0.1143963560461998,0.24473021924495698,0.007027587853372097]},{"bufferView":6,"byteOffset":3504,"componentType":5126,"count":292,"type":"VEC3"},{"bufferView":7,"byteOffset":0,"componentType":5126,"count":292,"type":"VEC2"},{"bufferView":8,"byteOffset":0,"componentType":5123,"count":1536,"type":"SCALAR"}],"meshes":[{"name":"pCylinder29","primitives":[{"attributes":{"NORMAL":1,"POSITION":0,"TEXCOORD_0":2},"indices":3,"mode":4,"material":0}]},{"name":"pCylinder30","primitives":[{"attributes":{"NORMAL":5,"POSITION":4,"TEXCOORD_0":6},"indices":7,"mode":4,"material":0}]},{"name":"pPlane2","primitives":[{"attributes":{"NORMAL":9,"POSITION":8,"TEXCOORD_0":10},"indices":11,"mode":4,"material":0}]}],"nodes":[{"name":"pCylinder29","mesh":0,"extras":{"id":"42"}},{"name":"pCylinder30","mesh":1,"extras":{"id":"43"}},{"name":"pPlane2","mesh":2,"extras":{"id":"44"}},{"name":"FbxFlag","children":[0,1,2]}],"scenes":[{"nodes":[3]}],"scene":0}