{"asset":{"version":"2.0","generator":"pv2gltf","copyright":""},"samplers":[{"magFilter":9729,"minFilter":9986,"wrapS":10497,"wrapT":10497}],"images":[{"uri":"pap-cup.tga"}],"textures":[{"sampler":0,"source":0}],"materials":[{"name":"material_0","pbrMetallicRoughness":{"baseColorFactor":[0.0,0.0,0.0,1.0],"baseColorTexture":{"index":0,"texCoord":0},"metallicFactor":0.5,"roughnessFactor":0.5},"doubleSided":true}],"buffers":[{"uri":"pap-cup-obj.bin","byteLength":18080}],"bufferViews":[{"buffer":0,"byteOffset":0,"byteLength":10608,"byteStride":12,"target":34962},{"buffer":0,"byteOffset":10608,"byteLength":3536,"byteStride":8,"target":34962},{"buffer":0,"byteOffset":14144,"byteLength":3936,"target":34963}],"accessors":[{"bufferView":0,"byteOffset":0,"componentType":5126,"count":442,"type":"VEC3","min":[-29.135299682617189,0.0,-4.085400104522705],"max":[-20.93790054321289,12.064800262451172,4.085400104522705]},{"bufferView":0,"byteOffset":5304,"componentType":5126,"count":442,"type":"VEC3"},{"bufferView":1,"byteOffset":0,"componentType":5126,"count":442,"type":"VEC2"},{"bufferView":2,"byteOffset":0,"componentType":5123,"count":1968,"type":"SCALAR"}],"meshes":[{"name":"pap-cup-obj","primitives":[{"attributes":{"NORMAL":1,"POSITION":0,"TEXCOORD_0":2},"indices":3,"mode":4,"material":0}]}],"nodes":[{"name":"pap-cup-obj","mesh":0}],"scenes":[{"nodes":[0]}],"scene":0}