{"asset":{"version":"2.0","generator":"pv2gltf","copyright":""},"samplers":[{"magFilter":9729,"minFilter":9986,"wrapS":10497,"wrapT":10497}],"materials":[{"name":"__pv_default_material_0__","pbrMetallicRoughness":{"baseColorFactor":[0.6800000071525574,0.6800000071525574,0.6800000071525574,1.0],"metallicFactor":0.5,"roughnessFactor":0.5},"doubleSided":true}],"buffers":[{"uri":"glass_2.bin","byteLength":626736}],"bufferViews":[{"buffer":0,"byteOffset":0,"byteLength":417840,"byteStride":12,"target":34962},{"buffer":0,"byteOffset":417840,"byteLength":208896,"target":34963}],"accessors":[{"bufferView":0,"byteOffset":0,"componentType":5126,"count":17410,"type":"VEC3","min":[-0.9887740015983582,-1.9831559658050538,-0.9887740015983582],"max":[0.9887740015983582,1.0028090476989747,0.9887740015983582]},{"bufferView":0,"byteOffset":208920,"componentType":5126,"count":17410,"type":"VEC3"},{"bufferView":1,"byteOffset":0,"componentType":5123,"count":104448,"type":"SCALAR"}],"meshes":[{"name":"Cylinder","primitives":[{"attributes":{"NORMAL":1,"POSITION":0},"indices":2,"mode":4,"material":0}]}],"nodes":[{"name":"Cylinder","mesh":0},{"name":"glass","children":[0]}],"scenes":[{"nodes":[1]}],"scene":0}