{"asset":{"version":"2.0","generator":"pv2gltf","copyright":""},"samplers":[{"magFilter":9729,"minFilter":9986,"wrapS":10497,"wrapT":10497}],"materials":[{"name":"__pv_default_material_0__","pbrMetallicRoughness":{"baseColorFactor":[0.6800000071525574,0.6800000071525574,0.6800000071525574,1.0],"metallicFactor":0.5,"roughnessFactor":0.5},"doubleSided":true}],"buffers":[{"uri":"carilionclinic-3DView-{3D}.bin","byteLength":1144},{"uri":"carilionclinic-3DView-{3D}_2.bin","byteLength":992},{"uri":"carilionclinic-3DView-{3D}_3.bin","byteLength":992},{"uri":"carilionclinic-3DView-{3D}_4.bin","byteLength":992},{"uri":"carilionclinic-3DView-{3D}_5.bin","byteLength":992},{"uri":"carilionclinic-3DView-{3D}_6.bin","byteLength":992},{"uri":"carilionclinic-3DView-{3D}_7.bin","byteLength":840},{"uri":"carilionclinic-3DView-{3D}_8.bin","byteLength":1488},{"uri":"carilionclinic-3DView-{3D}_9.bin","byteLength":1488},{"uri":"carilionclinic-3DView-{3D}_10.bin","byteLength":552},{"uri":"carilionclinic-3DView-{3D}_11.bin","byteLength":552},{"uri":"carilionclinic-3DView-{3D}_12.bin","byteLength":552},{"uri":"carilionclinic-3DView-{3D}_13.bin","byteLength":552},{"uri":"carilionclinic-3DView-{3D}_14.bin","byteLength":552},{"uri":"carilionclinic-3DView-{3D}_15.bin","byteLength":552},{"uri":"carilionclinic-3DView-{3D}_16.bin","byteLength":552}],"bufferViews":[{"buffer":0,"byteOffset":0,"byteLength":768,"byteStride":12,"target":34962},{"buffer":0,"byteOffset":768,"byteLength":256,"byteStride":8,"target":34962},{"buffer":0,"byteOffset":1024,"byteLength":120,"target":34963},{"buffer":1,"byteOffset":0,"byteLength":672,"byteStride":12,"target":34962},{"buffer":1,"byteOffset":672,"byteLength":224,"byteStride":8,"target":34962},{"buffer":1,"byteOffset":896,"byteLength":96,"target":34963},{"buffer":2,"byteOffset":0,"byteLength":672,"byteStride":12,"target":34962},{"buffer":2,"byteOffset":672,"byteLength":224,"byteStride":8,"target":34962},{"buffer":2,"byteOffset":896,"byteLength":96,"target":34963},{"buffer":3,"byteOffset":0,"byteLength":672,"byteStride":12,"target":34962},{"buffer":3,"byteOffset":672,"byteLength":224,"byteStride":8,"target":34962},{"buffer":3,"byteOffset":896,"byteLength":96,"target":34963},{"buffer":4,"byteOffset":0,"byteLength":672,"byteStride":12,"target":34962},{"buffer":4,"byteOffset":672,"byteLength":224,"byteStride":8,"target":34962},{"buffer":4,"byteOffset":896,"byteLength":96,"target":34963},{"buffer":5,"byteOffset":0,"byteLength":672,"byteStride":12,"target":34962},{"buffer":5,"byteOffset":672,"byteLength":224,"byteStride":8,"target":34962},{"buffer":5,"byteOffset":896,"byteLength":96,"target":34963},{"buffer":6,"byteOffset":0,"byteLength":576,"byteStride":12,"target":34962},{"buffer":6,"byteOffset":576,"byteLength":192,"byteStride":8,"target":34962},{"buffer":6,"byteOffset":768,"byteLength":72,"target":34963},{"buffer":7,"byteOffset":0,"byteLength":1008,"byteStride":12,"target":34962},{"buffer":7,"byteOffset":1008,"byteLength":336,"byteStride":8,"target":34962},{"buffer":7,"byteOffset":1344,"byteLength":144,"target":34963},{"buffer":8,"byteOffset":0,"byteLength":1008,"byteStride":12,"target":34962},{"buffer":8,"byteOffset":1008,"byteLength":336,"byteStride":8,"target":34962},{"buffer":8,"byteOffset":1344,"byteLength":144,"target":34963},{"buffer":9,"byteOffset":0,"byteLength":360,"byteStride":12,"target":34962},{"buffer":9,"byteOffset":360,"byteLength":120,"byteStride":8,"target":34962},{"buffer":9,"byteOffset":480,"byteLength":72,"target":34963},{"buffer":10,"byteOffset":0,"byteLength":360,"byteStride":12,"target":34962},{"buffer":10,"byteOffset":360,"byteLength":120,"byteStride":8,"target":34962},{"buffer":10,"byteOffset":480,"byteLength":72,"target":34963},{"buffer":11,"byteOffset":0,"byteLength":360,"byteStride":12,"target":34962},{"buffer":11,"byteOffset":360,"byteLength":120,"byteStride":8,"target":34962},{"buffer":11,"byteOffset":480,"byteLength":72,"target":34963},{"buffer":12,"byteOffset":0,"byteLength":360,"byteStride":12,"target":34962},{"buffer":12,"byteOffset":360,"byteLength":120,"byteStride":8,"target":34962},{"buffer":12,"byteOffset":480,"byteLength":72,"target":34963},{"buffer":13,"byteOffset":0,"byteLength":360,"byteStride":12,"target":34962},{"buffer":13,"byteOffset":360,"byteLength":120,"byteStride":8,"target":34962},{"buffer":13,"byteOffset":480,"byteLength":72,"target":34963},{"buffer":14,"byteOffset":0,"byteLength":360,"byteStride":12,"target":34962},{"buffer":14,"byteOffset":360,"byteLength":120,"byteStride":8,"target":34962},{"buffer":14,"byteOffset":480,"byteLength":72,"target":34963},{"buffer":15,"byteOffset":0,"byteLength":360,"byteStride":12,"target":34962},{"buffer":15,"byteOffset":360,"byteLength":120,"byteStride":8,"target":34962},{"buffer":15,"byteOffset":480,"byteLength":72,"target":34963}],"accessors":[{"bufferView":0,"byteOffset":0,"componentType":5126,"count":32,"type":"VEC3","min":[0.04485287144780159,-0.3493632674217224,-3.308722376256401e-26],"max":[0.35615912079811098,0.5661957859992981,0.19999998807907105]},{"bufferView":0,"byteOffset":384,"componentType":5126,"count":32,"type":"VEC3"},{"bufferView":1,"byteOffset":0,"componentType":5126,"count":32,"type":"VEC2"},{"bufferView":2,"byteOffset":0,"componentType":5123,"count":60,"type":"SCALAR"},{"bufferView":3,"byteOffset":0,"componentType":5126,"count":28,"type":"VEC3","min":[0.35113757848739626,0.5185125470161438,-1.3234889505025604e-25],"max":[0.44776833057403567,0.561174213886261,0.19999998807907105]},{"bufferView":3,"byteOffset":336,"componentType":5126,"count":28,"type":"VEC3"},{"bufferView":4,"byteOffset":0,"componentType":5126,"count":28,"type":"VEC2"},{"bufferView":5,"byteOffset":0,"componentType":5123,"count":48,"type":"SCALAR"},{"bufferView":6,"byteOffset":0,"componentType":5126,"count":28,"type":"VEC3","min":[0.43042314052581789,0.5314086079597473,-1.3234889505025604e-25],"max":[0.4802149534225464,0.5757469534873962,0.19999998807907105]},{"bufferView":6,"byteOffset":336,"componentType":5126,"count":28,"type":"VEC3"},{"bufferView":7,"byteOffset":0,"componentType":5126,"count":28,"type":"VEC2"},{"bufferView":8,"byteOffset":0,"componentType":5123,"count":48,"type":"SCALAR"},{"bufferView":9,"byteOffset":0,"componentType":5126,"count":28,"type":"VEC3","min":[0.46871745586395266,0.14238491654396058,-6.617444752512802e-26],"max":[0.8638774156570435,0.5638552308082581,0.19999998807907105]},{"bufferView":9,"byteOffset":336,"componentType":5126,"count":28,"type":"VEC3"},{"bufferView":10,"byteOffset":0,"componentType":5126,"count":28,"type":"VEC2"},{"bufferView":11,"byteOffset":0,"componentType":5123,"count":48,"type":"SCALAR"},{"bufferView":12,"byteOffset":0,"componentType":5126,"count":28,"type":"VEC3","min":[0.6606836318969727,-0.006324727553874254,-2.6469779010051208e-25],"max":[0.8510233163833618,0.1543148159980774,0.19999998807907105]},{"bufferView":12,"byteOffset":336,"componentType":5126,"count":28,"type":"VEC3"},{"bufferView":13,"byteOffset":0,"componentType":5126,"count":28,"type":"VEC2"},{"bufferView":14,"byteOffset":0,"componentType":5123,"count":48,"type":"SCALAR"},{"bufferView":15,"byteOffset":0,"componentType":5126,"count":28,"type":"VEC3","min":[0.5025362968444824,-0.49807363748550417,-6.617444752512802e-26],"max":[0.6835829615592957,0.01156623475253582,0.19999998807907105]},{"bufferView":15,"byteOffset":336,"componentType":5126,"count":28,"type":"VEC3"},{"bufferView":16,"byteOffset":0,"componentType":5126,"count":28,"type":"VEC2"},{"bufferView":17,"byteOffset":0,"componentType":5123,"count":48,"type":"SCALAR"},{"bufferView":18,"byteOffset":0,"componentType":5126,"count":24,"type":"VEC3","min":[0.06030753627419472,-0.4930521249771118,0.0],"max":[0.5075578093528748,-0.3339086174964905,0.19999998807907105]},{"bufferView":18,"byteOffset":288,"componentType":5126,"count":24,"type":"VEC3"},{"bufferView":19,"byteOffset":0,"componentType":5126,"count":24,"type":"VEC2"},{"bufferView":20,"byteOffset":0,"componentType":5123,"count":36,"type":"SCALAR"},{"bufferView":21,"byteOffset":0,"componentType":5126,"count":42,"type":"VEC3","min":[0.06100287660956383,-0.4879668056964874,0.0],"max":[0.8520416021347046,0.5642023086547852,0.004999999888241291]},{"bufferView":21,"byteOffset":504,"componentType":5126,"count":42,"type":"VEC3"},{"bufferView":22,"byteOffset":0,"componentType":5126,"count":42,"type":"VEC2"},{"bufferView":23,"byteOffset":0,"componentType":5123,"count":72,"type":"SCALAR"},{"bufferView":24,"byteOffset":0,"componentType":5126,"count":42,"type":"VEC3","min":[0.04485287144780159,-0.49807363748550417,0.19999998807907105],"max":[0.8638774156570435,0.5757469534873962,0.20999999344348908]},{"bufferView":24,"byteOffset":504,"componentType":5126,"count":42,"type":"VEC3"},{"bufferView":25,"byteOffset":0,"componentType":5126,"count":42,"type":"VEC2"},{"bufferView":26,"byteOffset":0,"componentType":5123,"count":72,"type":"SCALAR"},{"bufferView":27,"byteOffset":0,"componentType":5126,"count":15,"type":"VEC3","min":[-1.9081958132347302e-19,-0.00010416666918899864,0.0],"max":[0.00020833333837799728,0.00010416666918899864,0.0]},{"bufferView":27,"byteOffset":180,"componentType":5126,"count":15,"type":"VEC3"},{"bufferView":28,"byteOffset":0,"componentType":5126,"count":15,"type":"VEC2"},{"bufferView":29,"byteOffset":0,"componentType":5123,"count":36,"type":"SCALAR"},{"bufferView":30,"byteOffset":0,"componentType":5126,"count":15,"type":"VEC3","min":[-1.9081958132347302e-19,-0.00010416666918899864,0.0],"max":[0.00020833333837799728,0.00010416666918899864,0.0]},{"bufferView":30,"byteOffset":180,"componentType":5126,"count":15,"type":"VEC3"},{"bufferView":31,"byteOffset":0,"componentType":5126,"count":15,"type":"VEC2"},{"bufferView":32,"byteOffset":0,"componentType":5123,"count":36,"type":"SCALAR"},{"bufferView":33,"byteOffset":0,"componentType":5126,"count":15,"type":"VEC3","min":[-1.9081958132347302e-19,-0.00010416666918899864,0.0],"max":[0.00020833333837799728,0.00010416666918899864,0.0]},{"bufferView":33,"byteOffset":180,"componentType":5126,"count":15,"type":"VEC3"},{"bufferView":34,"byteOffset":0,"componentType":5126,"count":15,"type":"VEC2"},{"bufferView":35,"byteOffset":0,"componentType":5123,"count":36,"type":"SCALAR"},{"bufferView":36,"byteOffset":0,"componentType":5126,"count":15,"type":"VEC3","min":[-1.9081958132347302e-19,-0.00010416666918899864,0.0],"max":[0.00020833333837799728,0.00010416666918899864,0.0]},{"bufferView":36,"byteOffset":180,"componentType":5126,"count":15,"type":"VEC3"},{"bufferView":37,"byteOffset":0,"componentType":5126,"count":15,"type":"VEC2"},{"bufferView":38,"byteOffset":0,"componentType":5123,"count":36,"type":"SCALAR"},{"bufferView":39,"byteOffset":0,"componentType":5126,"count":15,"type":"VEC3","min":[-1.9081958132347302e-19,-0.00010416666918899864,0.0],"max":[0.00020833333837799728,0.00010416666918899864,0.0]},{"bufferView":39,"byteOffset":180,"componentType":5126,"count":15,"type":"VEC3"},{"bufferView":40,"byteOffset":0,"componentType":5126,"count":15,"type":"VEC2"},{"bufferView":41,"byteOffset":0,"componentType":5123,"count":36,"type":"SCALAR"},{"bufferView":42,"byteOffset":0,"componentType":5126,"count":15,"type":"VEC3","min":[-1.9081958132347302e-19,-0.00010416666918899864,0.0],"max":[0.00020833333837799728,0.00010416666918899864,0.0]},{"bufferView":42,"byteOffset":180,"componentType":5126,"count":15,"type":"VEC3"},{"bufferView":43,"byteOffset":0,"componentType":5126,"count":15,"type":"VEC2"},{"bufferView":44,"byteOffset":0,"componentType":5123,"count":36,"type":"SCALAR"},{"bufferView":45,"byteOffset":0,"componentType":5126,"count":15,"type":"VEC3","min":[-1.9081958132347302e-19,-0.00010416666918899864,0.0],"max":[0.00020833333837799728,0.00010416666918899864,0.0]},{"bufferView":45,"byteOffset":180,"componentType":5126,"count":15,"type":"VEC3"},{"bufferView":46,"byteOffset":0,"componentType":5126,"count":15,"type":"VEC2"},{"bufferView":47,"byteOffset":0,"componentType":5123,"count":36,"type":"SCALAR"}],"meshes":[{"name":"Basic Wall Exterior - Brick on CMU [279650]","primitives":[{"attributes":{"NORMAL":1,"POSITION":0,"TEXCOORD_0":2},"indices":3,"mode":4,"material":0}]},{"name":"Basic Wall Exterior - Brick on CMU [279713]","primitives":[{"attributes":{"NORMAL":5,"POSITION":4,"TEXCOORD_0":6},"indices":7,"mode":4,"material":0}]},{"name":"Basic Wall Exterior - Brick on CMU [279736]","primitives":[{"attributes":{"NORMAL":9,"POSITION":8,"TEXCOORD_0":10},"indices":11,"mode":4,"material":0}]},{"name":"Basic Wall Exterior - Brick on CMU [279788]","primitives":[{"attributes":{"NORMAL":13,"POSITION":12,"TEXCOORD_0":14},"indices":15,"mode":4,"material":0}]},{"name":"Basic Wall Exterior - Brick on CMU [279871]","primitives":[{"attributes":{"NORMAL":17,"POSITION":16,"TEXCOORD_0":18},"indices":19,"mode":4,"material":0}]},{"name":"Basic Wall Exterior - Brick on CMU [279929]","primitives":[{"attributes":{"NORMAL":21,"POSITION":20,"TEXCOORD_0":22},"indices":23,"mode":4,"material":0}]},{"name":"Basic Wall Exterior - Brick on CMU [279967]","primitives":[{"attributes":{"NORMAL":25,"POSITION":24,"TEXCOORD_0":26},"indices":27,"mode":4,"material":0}]},{"name":"Floor Concrete Slab - 6\" [279989]","primitives":[{"attributes":{"NORMAL":29,"POSITION":28,"TEXCOORD_0":30},"indices":31,"mode":4,"material":0}]},{"name":"Basic Roof Generic - 12\" [280014]","primitives":[{"attributes":{"NORMAL":33,"POSITION":32,"TEXCOORD_0":34},"indices":35,"mode":4,"material":0}]},{"name":"Level Level 1 [355]","primitives":[{"attributes":{"NORMAL":37,"POSITION":36,"TEXCOORD_0":38},"indices":39,"mode":4,"material":0}]},{"name":"Level Level 2 [2794]","primitives":[{"attributes":{"NORMAL":41,"POSITION":40,"TEXCOORD_0":42},"indices":43,"mode":4,"material":0}]},{"name":"Level Level 04 - T.O. Fnd. Wall [5562]","primitives":[{"attributes":{"NORMAL":45,"POSITION":44,"TEXCOORD_0":46},"indices":47,"mode":4,"material":0}]},{"name":"Level Level 03 - T.O. Basement Slab [5608]","primitives":[{"attributes":{"NORMAL":49,"POSITION":48,"TEXCOORD_0":50},"indices":51,"mode":4,"material":0}]},{"name":"Level Level 02 - T.O. Footing [5631]","primitives":[{"attributes":{"NORMAL":53,"POSITION":52,"TEXCOORD_0":54},"indices":55,"mode":4,"material":0}]},{"name":"Level Level 01 - B.O. Footing [5661]","primitives":[{"attributes":{"NORMAL":57,"POSITION":56,"TEXCOORD_0":58},"indices":59,"mode":4,"material":0}]},{"name":"Level Roof [8808]","primitives":[{"attributes":{"NORMAL":61,"POSITION":60,"TEXCOORD_0":62},"indices":63,"mode":4,"material":0}]}],"nodes":[{"name":"Basic Wall Exterior - Brick on CMU [279650]","mesh":0,"extras":{"id":"39"}},{"name":"Basic Wall Exterior - Brick on CMU [279713]","mesh":1,"extras":{"id":"40"}},{"name":"Basic Wall Exterior - Brick on CMU [279736]","mesh":2,"extras":{"id":"41"}},{"name":"Basic Wall Exterior - Brick on CMU [279788]","mesh":3,"extras":{"id":"42"}},{"name":"Basic Wall Exterior - Brick on CMU [279871]","mesh":4,"extras":{"id":"43"}},{"name":"Basic Wall Exterior - Brick on CMU [279929]","mesh":5,"extras":{"id":"44"}},{"name":"Basic Wall Exterior - Brick on CMU [279967]","mesh":6,"extras":{"id":"45"}},{"name":"Floor Concrete Slab - 6\" [279989]","mesh":7,"extras":{"id":"46"}},{"name":"Basic Roof Generic - 12\" [280014]","mesh":8,"extras":{"id":"47"}},{"name":"Level Level 1 [355]","mesh":9,"matrix":[5.878304635907292e-15,95.99999999999995,0.0,0.0,-5.878304635907292e-15,3.599423478388456e-31,95.99999999999995,0.0,95.99999999999995,-5.878304635907292e-15,5.878304635907292e-15,0.0,1.5702214546560205,0.8703441948928867,0.0,1.0],"extras":{"id":"48"}},{"name":"Level Level 2 [2794]","mesh":10,"matrix":[5.878304635907292e-15,95.99999999999995,0.0,0.0,-5.878304635907292e-15,3.599423478388456e-31,95.99999999999995,0.0,95.99999999999995,-5.878304635907292e-15,5.878304635907292e-15,0.0,1.5702214546560205,0.8703441948928867,0.09999999999999994,1.0],"extras":{"id":"49"}},{"name":"Level Level 04 - T.O. Fnd. Wall [5562]","mesh":11,"matrix":[5.878304635907292e-15,95.99999999999995,0.0,0.0,-5.878304635907292e-15,3.599423478388456e-31,95.99999999999995,0.0,95.99999999999995,-5.878304635907292e-15,5.878304635907292e-15,0.0,1.5702214546560205,0.8703441948928867,-0.009999999999999994,1.0],"extras":{"id":"50"}},{"name":"Level Level 03 - T.O. Basement Slab [5608]","mesh":12,"matrix":[5.878304635907292e-15,95.99999999999995,0.0,0.0,-5.878304635907292e-15,3.599423478388456e-31,95.99999999999995,0.0,95.99999999999995,-5.878304635907292e-15,5.878304635907292e-15,0.0,1.5702214546560205,0.8703441948928867,-0.07999999999999995,1.0],"extras":{"id":"51"}},{"name":"Level Level 02 - T.O. Footing [5631]","mesh":13,"matrix":[5.878304635907292e-15,95.99999999999995,0.0,0.0,-5.878304635907292e-15,3.599423478388456e-31,95.99999999999995,0.0,95.99999999999995,-5.878304635907292e-15,5.878304635907292e-15,0.0,1.5702214546560205,0.8703441948928867,-0.08999999999999996,1.0],"extras":{"id":"52"}},{"name":"Level Level 01 - B.O. Footing [5661]","mesh":14,"matrix":[5.878304635907292e-15,95.99999999999995,0.0,0.0,-5.878304635907292e-15,3.599423478388456e-31,95.99999999999995,0.0,95.99999999999995,-5.878304635907292e-15,5.878304635907292e-15,0.0,1.5702214546560205,0.8703441948928867,-0.09999999999999994,1.0],"extras":{"id":"53"}},{"name":"Level Roof [8808]","mesh":15,"matrix":[5.878304635907292e-15,95.99999999999995,0.0,0.0,-5.878304635907292e-15,3.599423478388456e-31,95.99999999999995,0.0,95.99999999999995,-5.878304635907292e-15,5.878304635907292e-15,0.0,1.5702214546560205,0.8703441948928867,0.19999999999999988,1.0],"extras":{"id":"54"}},{"name":"carilionclinic-3DView-{3D}","children":[0,1,2,3,4,5,6,7,8,9,10,11,12,13,14,15]}],"scenes":[{"nodes":[16]}],"scene":0}