{"asset":{"version":"2.0","generator":"pv2gltf","copyright":""},"samplers":[{"magFilter":9729,"minFilter":9986,"wrapS":10497,"wrapT":10497}],"materials":[{"name":"__pv_default_material_0__","pbrMetallicRoughness":{"baseColorFactor":[0.6800000071525574,0.6800000071525574,0.6800000071525574,1.0],"metallicFactor":0.5,"roughnessFactor":0.5},"doubleSided":true}],"buffers":[{"uri":"street lamp.bin","byteLength":4912}],"bufferViews":[{"buffer":0,"byteOffset":0,"byteLength":3360,"byteStride":12,"target":34962},{"buffer":0,"byteOffset":3360,"byteLength":1120,"byteStride":8,"target":34962},{"buffer":0,"byteOffset":4480,"byteLength":432,"target":34963}],"accessors":[{"bufferView":0,"byteOffset":0,"componentType":5126,"count":140,"type":"VEC3","min":[-0.28432899713516238,0.0015569999814033509,-0.24143800139427186],"max":[0.3462370038032532,3.14963698387146,0.24143800139427186]},{"bufferView":0,"byteOffset":1680,"componentType":5126,"count":140,"type":"VEC3"},{"bufferView":1,"byteOffset":0,"componentType":5126,"count":140,"type":"VEC2"},{"bufferView":2,"byteOffset":0,"componentType":5123,"count":216,"type":"SCALAR"}],"meshes":[{"name":"street lamp","primitives":[{"attributes":{"NORMAL":1,"POSITION":0,"TEXCOORD_0":2},"indices":3,"mode":4,"material":0}]}],"nodes":[{"name":"street lamp","mesh":0}],"scenes":[{"nodes":[0]}],"scene":0}