{"asset":{"version":"2.0","generator":"pv2gltf","copyright":""},"samplers":[{"magFilter":9729,"minFilter":9986,"wrapS":10497,"wrapT":10497}],"materials":[{"name":"__pv_default_material_0__","pbrMetallicRoughness":{"baseColorFactor":[0.6800000071525574,0.6800000071525574,0.6800000071525574,1.0],"metallicFactor":0.5,"roughnessFactor":0.5},"doubleSided":true}],"buffers":[{"uri":"D2deets-3DView-{3D}.bin","byteLength":992},{"uri":"D2deets-3DView-{3D}_2.bin","byteLength":992},{"uri":"D2deets-3DView-{3D}_3.bin","byteLength":840},{"uri":"D2deets-3DView-{3D}_4.bin","byteLength":2160},{"uri":"D2deets-3DView-{3D}_5.bin","byteLength":1144},{"uri":"D2deets-3DView-{3D}_6.bin","byteLength":992},{"uri":"D2deets-3DView-{3D}_7.bin","byteLength":992},{"uri":"D2deets-3DView-{3D}_8.bin","byteLength":1680},{"uri":"D2deets-3DView-{3D}_9.bin","byteLength":1144},{"uri":"D2deets-3DView-{3D}_10.bin","byteLength":840},{"uri":"D2deets-3DView-{3D}_11.bin","byteLength":552},{"uri":"D2deets-3DView-{3D}_12.bin","byteLength":552},{"uri":"D2deets-3DView-{3D}_13.bin","byteLength":552},{"uri":"D2deets-3DView-{3D}_14.bin","byteLength":552},{"uri":"D2deets-3DView-{3D}_15.bin","byteLength":552},{"uri":"D2deets-3DView-{3D}_16.bin","byteLength":552},{"uri":"D2deets-3DView-{3D}_17.bin","byteLength":552}],"bufferViews":[{"buffer":0,"byteOffset":0,"byteLength":672,"byteStride":12,"target":34962},{"buffer":0,"byteOffset":672,"byteLength":224,"byteStride":8,"target":34962},{"buffer":0,"byteOffset":896,"byteLength":96,"target":34963},{"buffer":1,"byteOffset":0,"byteLength":672,"byteStride":12,"target":34962},{"buffer":1,"byteOffset":672,"byteLength":224,"byteStride":8,"target":34962},{"buffer":1,"byteOffset":896,"byteLength":96,"target":34963},{"buffer":2,"byteOffset":0,"byteLength":576,"byteStride":12,"target":34962},{"buffer":2,"byteOffset":576,"byteLength":192,"byteStride":8,"target":34962},{"buffer":2,"byteOffset":768,"byteLength":72,"target":34963},{"buffer":3,"byteOffset":0,"byteLength":1440,"byteStride":12,"target":34962},{"buffer":3,"byteOffset":1440,"byteLength":480,"byteStride":8,"target":34962},{"buffer":3,"byteOffset":1920,"byteLength":240,"target":34963},{"buffer":4,"byteOffset":0,"byteLength":768,"byteStride":12,"target":34962},{"buffer":4,"byteOffset":768,"byteLength":256,"byteStride":8,"target":34962},{"buffer":4,"byteOffset":1024,"byteLength":120,"target":34963},{"buffer":5,"byteOffset":0,"byteLength":672,"byteStride":12,"target":34962},{"buffer":5,"byteOffset":672,"byteLength":224,"byteStride":8,"target":34962},{"buffer":5,"byteOffset":896,"byteLength":96,"target":34963},{"buffer":6,"byteOffset":0,"byteLength":672,"byteStride":12,"target":34962},{"buffer":6,"byteOffset":672,"byteLength":224,"byteStride":8,"target":34962},{"buffer":6,"byteOffset":896,"byteLength":96,"target":34963},{"buffer":7,"byteOffset":0,"byteLength":1152,"byteStride":12,"target":34962},{"buffer":7,"byteOffset":1152,"byteLength":384,"byteStride":8,"target":34962},{"buffer":7,"byteOffset":1536,"byteLength":144,"target":34963},{"buffer":8,"byteOffset":0,"byteLength":768,"byteStride":12,"target":34962},{"buffer":8,"byteOffset":768,"byteLength":256,"byteStride":8,"target":34962},{"buffer":8,"byteOffset":1024,"byteLength":120,"target":34963},{"buffer":9,"byteOffset":0,"byteLength":576,"byteStride":12,"target":34962},{"buffer":9,"byteOffset":576,"byteLength":192,"byteStride":8,"target":34962},{"buffer":9,"byteOffset":768,"byteLength":72,"target":34963},{"buffer":10,"byteOffset":0,"byteLength":360,"byteStride":12,"target":34962},{"buffer":10,"byteOffset":360,"byteLength":120,"byteStride":8,"target":34962},{"buffer":10,"byteOffset":480,"byteLength":72,"target":34963},{"buffer":11,"byteOffset":0,"byteLength":360,"byteStride":12,"target":34962},{"buffer":11,"byteOffset":360,"byteLength":120,"byteStride":8,"target":34962},{"buffer":11,"byteOffset":480,"byteLength":72,"target":34963},{"buffer":12,"byteOffset":0,"byteLength":360,"byteStride":12,"target":34962},{"buffer":12,"byteOffset":360,"byteLength":120,"byteStride":8,"target":34962},{"buffer":12,"byteOffset":480,"byteLength":72,"target":34963},{"buffer":13,"byteOffset":0,"byteLength":360,"byteStride":12,"target":34962},{"buffer":13,"byteOffset":360,"byteLength":120,"byteStride":8,"target":34962},{"buffer":13,"byteOffset":480,"byteLength":72,"target":34963},{"buffer":14,"byteOffset":0,"byteLength":360,"byteStride":12,"target":34962},{"buffer":14,"byteOffset":360,"byteLength":120,"byteStride":8,"target":34962},{"buffer":14,"byteOffset":480,"byteLength":72,"target":34963},{"buffer":15,"byteOffset":0,"byteLength":360,"byteStride":12,"target":34962},{"buffer":15,"byteOffset":360,"byteLength":120,"byteStride":8,"target":34962},{"buffer":15,"byteOffset":480,"byteLength":72,"target":34963},{"buffer":16,"byteOffset":0,"byteLength":360,"byteStride":12,"target":34962},{"buffer":16,"byteOffset":360,"byteLength":120,"byteStride":8,"target":34962},{"buffer":16,"byteOffset":480,"byteLength":72,"target":34963}],"accessors":[{"bufferView":0,"byteOffset":0,"componentType":5126,"count":28,"type":"VEC3","min":[-0.07023466378450394,-0.12063007801771164,-6.617444752512802e-26],"max":[0.05775062367320061,0.02794150449335575,0.09999999403953552]},{"bufferView":0,"byteOffset":336,"componentType":5126,"count":28,"type":"VEC3"},{"bufferView":1,"byteOffset":0,"componentType":5126,"count":28,"type":"VEC2"},{"bufferView":2,"byteOffset":0,"componentType":5123,"count":48,"type":"SCALAR"},{"bufferView":3,"byteOffset":0,"componentType":5126,"count":28,"type":"VEC3","min":[-0.05796876922249794,0.015491385944187642,0.0],"max":[0.6590623259544373,0.6419796347618103,0.09999999403953552]},{"bufferView":3,"byteOffset":336,"componentType":5126,"count":28,"type":"VEC3"},{"bufferView":4,"byteOffset":0,"componentType":5126,"count":28,"type":"VEC2"},{"bufferView":5,"byteOffset":0,"componentType":5123,"count":48,"type":"SCALAR"},{"bufferView":6,"byteOffset":0,"componentType":5126,"count":24,"type":"VEC3","min":[0.646798312664032,0.4954710006713867,0.0],"max":[0.7664920091629028,0.629715621471405,0.09999999403953552]},{"bufferView":6,"byteOffset":288,"componentType":5126,"count":24,"type":"VEC3"},{"bufferView":7,"byteOffset":0,"componentType":5126,"count":24,"type":"VEC2"},{"bufferView":8,"byteOffset":0,"componentType":5123,"count":36,"type":"SCALAR"},{"bufferView":9,"byteOffset":0,"componentType":5126,"count":60,"type":"VEC3","min":[0.03125203773379326,-0.14526639878749848,-3.308722376256401e-26],"max":[0.7889968752861023,0.5164276957511902,0.19999998807907105]},{"bufferView":9,"byteOffset":720,"componentType":5126,"count":60,"type":"VEC3"},{"bufferView":10,"byteOffset":0,"componentType":5126,"count":60,"type":"VEC2"},{"bufferView":11,"byteOffset":0,"componentType":5123,"count":120,"type":"SCALAR"},{"bufferView":12,"byteOffset":0,"componentType":5126,"count":32,"type":"VEC3","min":[0.018988007679581643,-0.4227830767631531,-6.617444752512802e-26],"max":[0.27388712763786318,-0.133002370595932,0.19999998807907105]},{"bufferView":12,"byteOffset":384,"componentType":5126,"count":32,"type":"VEC3"},{"bufferView":13,"byteOffset":0,"componentType":5126,"count":32,"type":"VEC2"},{"bufferView":14,"byteOffset":0,"componentType":5123,"count":60,"type":"SCALAR"},{"bufferView":15,"byteOffset":0,"componentType":5126,"count":28,"type":"VEC3","min":[0.263226181268692,-0.41212210059165957,-3.308722376256401e-26],"max":[1.03323495388031,0.26023295521736147,0.19999998807907105]},{"bufferView":15,"byteOffset":336,"componentType":5126,"count":28,"type":"VEC3"},{"bufferView":16,"byteOffset":0,"componentType":5126,"count":28,"type":"VEC2"},{"bufferView":17,"byteOffset":0,"componentType":5123,"count":48,"type":"SCALAR"},{"bufferView":18,"byteOffset":0,"componentType":5126,"count":28,"type":"VEC3","min":[0.7783358693122864,0.24957197904586793,-6.617444752512802e-26],"max":[1.0225740671157838,0.5270887017250061,0.19999998807907105]},{"bufferView":18,"byteOffset":336,"componentType":5126,"count":28,"type":"VEC3"},{"bufferView":19,"byteOffset":0,"componentType":5126,"count":28,"type":"VEC2"},{"bufferView":20,"byteOffset":0,"componentType":5123,"count":48,"type":"SCALAR"},{"bufferView":21,"byteOffset":0,"componentType":5126,"count":48,"type":"VEC3","min":[-0.059023864567279819,-0.4114675521850586,0.0],"max":[1.0219194889068604,0.6306641101837158,0.004999999888241291]},{"bufferView":21,"byteOffset":576,"componentType":5126,"count":48,"type":"VEC3"},{"bufferView":22,"byteOffset":0,"componentType":5126,"count":48,"type":"VEC2"},{"bufferView":23,"byteOffset":0,"componentType":5123,"count":72,"type":"SCALAR"},{"bufferView":24,"byteOffset":0,"componentType":5126,"count":32,"type":"VEC3","min":[-0.07023466378450394,-0.12533877789974214,0.09999999403953552],"max":[0.7705239653587341,0.6419796347618103,0.10999999940395355]},{"bufferView":24,"byteOffset":384,"componentType":5126,"count":32,"type":"VEC3"},{"bufferView":25,"byteOffset":0,"componentType":5126,"count":32,"type":"VEC2"},{"bufferView":26,"byteOffset":0,"componentType":5123,"count":60,"type":"SCALAR"},{"bufferView":27,"byteOffset":0,"componentType":5126,"count":24,"type":"VEC3","min":[0.018988007679581643,-0.4227830767631531,0.19999998807907105],"max":[1.03323495388031,0.5270887017250061,0.20999999344348908]},{"bufferView":27,"byteOffset":288,"componentType":5126,"count":24,"type":"VEC3"},{"bufferView":28,"byteOffset":0,"componentType":5126,"count":24,"type":"VEC2"},{"bufferView":29,"byteOffset":0,"componentType":5123,"count":36,"type":"SCALAR"},{"bufferView":30,"byteOffset":0,"componentType":5126,"count":15,"type":"VEC3","min":[-1.9081958132347302e-19,-0.00010416666918899864,0.0],"max":[0.00020833333837799728,0.00010416666918899864,0.0]},{"bufferView":30,"byteOffset":180,"componentType":5126,"count":15,"type":"VEC3"},{"bufferView":31,"byteOffset":0,"componentType":5126,"count":15,"type":"VEC2"},{"bufferView":32,"byteOffset":0,"componentType":5123,"count":36,"type":"SCALAR"},{"bufferView":33,"byteOffset":0,"componentType":5126,"count":15,"type":"VEC3","min":[-1.9081958132347302e-19,-0.00010416666918899864,0.0],"max":[0.00020833333837799728,0.00010416666918899864,0.0]},{"bufferView":33,"byteOffset":180,"componentType":5126,"count":15,"type":"VEC3"},{"bufferView":34,"byteOffset":0,"componentType":5126,"count":15,"type":"VEC2"},{"bufferView":35,"byteOffset":0,"componentType":5123,"count":36,"type":"SCALAR"},{"bufferView":36,"byteOffset":0,"componentType":5126,"count":15,"type":"VEC3","min":[-1.9081958132347302e-19,-0.00010416666918899864,0.0],"max":[0.00020833333837799728,0.00010416666918899864,0.0]},{"bufferView":36,"byteOffset":180,"componentType":5126,"count":15,"type":"VEC3"},{"bufferView":37,"byteOffset":0,"componentType":5126,"count":15,"type":"VEC2"},{"bufferView":38,"byteOffset":0,"componentType":5123,"count":36,"type":"SCALAR"},{"bufferView":39,"byteOffset":0,"componentType":5126,"count":15,"type":"VEC3","min":[-1.9081958132347302e-19,-0.00010416666918899864,0.0],"max":[0.00020833333837799728,0.00010416666918899864,0.0]},{"bufferView":39,"byteOffset":180,"componentType":5126,"count":15,"type":"VEC3"},{"bufferView":40,"byteOffset":0,"componentType":5126,"count":15,"type":"VEC2"},{"bufferView":41,"byteOffset":0,"componentType":5123,"count":36,"type":"SCALAR"},{"bufferView":42,"byteOffset":0,"componentType":5126,"count":15,"type":"VEC3","min":[-1.9081958132347302e-19,-0.00010416666918899864,0.0],"max":[0.00020833333837799728,0.00010416666918899864,0.0]},{"bufferView":42,"byteOffset":180,"componentType":5126,"count":15,"type":"VEC3"},{"bufferView":43,"byteOffset":0,"componentType":5126,"count":15,"type":"VEC2"},{"bufferView":44,"byteOffset":0,"componentType":5123,"count":36,"type":"SCALAR"},{"bufferView":45,"byteOffset":0,"componentType":5126,"count":15,"type":"VEC3","min":[-1.9081958132347302e-19,-0.00010416666918899864,0.0],"max":[0.00020833333837799728,0.00010416666918899864,0.0]},{"bufferView":45,"byteOffset":180,"componentType":5126,"count":15,"type":"VEC3"},{"bufferView":46,"byteOffset":0,"componentType":5126,"count":15,"type":"VEC2"},{"bufferView":47,"byteOffset":0,"componentType":5123,"count":36,"type":"SCALAR"},{"bufferView":48,"byteOffset":0,"componentType":5126,"count":15,"type":"VEC3","min":[-1.9081958132347302e-19,-0.00010416666918899864,0.0],"max":[0.00020833333837799728,0.00010416666918899864,0.0]},{"bufferView":48,"byteOffset":180,"componentType":5126,"count":15,"type":"VEC3"},{"bufferView":49,"byteOffset":0,"componentType":5126,"count":15,"type":"VEC2"},{"bufferView":50,"byteOffset":0,"componentType":5123,"count":36,"type":"SCALAR"}],"meshes":[{"name":"Basic Wall Exterior - Brick on CMU [279581]","primitives":[{"attributes":{"NORMAL":1,"POSITION":0,"TEXCOORD_0":2},"indices":3,"mode":4,"material":0}]},{"name":"Basic Wall Exterior - Brick on CMU [279625]","primitives":[{"attributes":{"NORMAL":5,"POSITION":4,"TEXCOORD_0":6},"indices":7,"mode":4,"material":0}]},{"name":"Basic Wall Exterior - Brick on CMU [279731]","primitives":[{"attributes":{"NORMAL":9,"POSITION":8,"TEXCOORD_0":10},"indices":11,"mode":4,"material":0}]},{"name":"Basic Wall Exterior - Brick on CMU [279809]","primitives":[{"attributes":{"NORMAL":13,"POSITION":12,"TEXCOORD_0":14},"indices":15,"mode":4,"material":0}]},{"name":"Basic Wall Exterior - Brick on CMU [279924]","primitives":[{"attributes":{"NORMAL":17,"POSITION":16,"TEXCOORD_0":18},"indices":19,"mode":4,"material":0}]},{"name":"Basic Wall Exterior - Brick on CMU [279971]","primitives":[{"attributes":{"NORMAL":21,"POSITION":20,"TEXCOORD_0":22},"indices":23,"mode":4,"material":0}]},{"name":"Basic Wall Exterior - Brick on CMU [280041]","primitives":[{"attributes":{"NORMAL":25,"POSITION":24,"TEXCOORD_0":26},"indices":27,"mode":4,"material":0}]},{"name":"Floor Concrete Slab - 6\" [280391]","primitives":[{"attributes":{"NORMAL":29,"POSITION":28,"TEXCOORD_0":30},"indices":31,"mode":4,"material":0}]},{"name":"Basic Roof Generic - 12\" [280558]","primitives":[{"attributes":{"NORMAL":33,"POSITION":32,"TEXCOORD_0":34},"indices":35,"mode":4,"material":0}]},{"name":"Basic Roof Generic - 12\" [280644]","primitives":[{"attributes":{"NORMAL":37,"POSITION":36,"TEXCOORD_0":38},"indices":39,"mode":4,"material":0}]},{"name":"Level Level 1 [355]","primitives":[{"attributes":{"NORMAL":41,"POSITION":40,"TEXCOORD_0":42},"indices":43,"mode":4,"material":0}]},{"name":"Level Level 2 [2794]","primitives":[{"attributes":{"NORMAL":45,"POSITION":44,"TEXCOORD_0":46},"indices":47,"mode":4,"material":0}]},{"name":"Level Level 04 - T.O. Fnd. Wall [5562]","primitives":[{"attributes":{"NORMAL":49,"POSITION":48,"TEXCOORD_0":50},"indices":51,"mode":4,"material":0}]},{"name":"Level Level 03 - T.O. Basement Slab [5608]","primitives":[{"attributes":{"NORMAL":53,"POSITION":52,"TEXCOORD_0":54},"indices":55,"mode":4,"material":0}]},{"name":"Level Level 02 - T.O. Footing [5631]","primitives":[{"attributes":{"NORMAL":57,"POSITION":56,"TEXCOORD_0":58},"indices":59,"mode":4,"material":0}]},{"name":"Level Level 01 - B.O. Footing [5661]","primitives":[{"attributes":{"NORMAL":61,"POSITION":60,"TEXCOORD_0":62},"indices":63,"mode":4,"material":0}]},{"name":"Level Roof [8808]","primitives":[{"attributes":{"NORMAL":65,"POSITION":64,"TEXCOORD_0":66},"indices":67,"mode":4,"material":0}]}],"nodes":[{"name":"Basic Wall Exterior - Brick on CMU [279581]","mesh":0,"extras":{"id":"39"}},{"name":"Basic Wall Exterior - Brick on CMU [279625]","mesh":1,"extras":{"id":"40"}},{"name":"Basic Wall Exterior - Brick on CMU [279731]","mesh":2,"extras":{"id":"41"}},{"name":"Basic Wall Exterior - Brick on CMU [279809]","mesh":3,"extras":{"id":"42"}},{"name":"Basic Wall Exterior - Brick on CMU [279924]","mesh":4,"extras":{"id":"43"}},{"name":"Basic Wall Exterior - Brick on CMU [279971]","mesh":5,"extras":{"id":"44"}},{"name":"Basic Wall Exterior - Brick on CMU [280041]","mesh":6,"extras":{"id":"45"}},{"name":"Floor Concrete Slab - 6\" [280391]","mesh":7,"extras":{"id":"46"}},{"name":"Basic Roof Generic - 12\" [280558]","mesh":8,"extras":{"id":"47"}},{"name":"Basic Roof Generic - 12\" [280644]","mesh":9,"extras":{"id":"48"}},{"name":"Level Level 1 [355]","mesh":10,"matrix":[5.878304635907292e-15,95.99999999999995,0.0,0.0,-5.878304635907292e-15,3.599423478388456e-31,95.99999999999995,0.0,95.99999999999995,-5.878304635907292e-15,5.878304635907292e-15,0.0,1.5702214546560205,0.8703441948928867,0.0,1.0],"extras":{"id":"49"}},{"name":"Level Level 2 [2794]","mesh":11,"matrix":[5.878304635907292e-15,95.99999999999995,0.0,0.0,-5.878304635907292e-15,3.599423478388456e-31,95.99999999999995,0.0,95.99999999999995,-5.878304635907292e-15,5.878304635907292e-15,0.0,1.5702214546560205,0.8703441948928867,0.09999999999999994,1.0],"extras":{"id":"50"}},{"name":"Level Level 04 - T.O. Fnd. Wall [5562]","mesh":12,"matrix":[5.878304635907292e-15,95.99999999999995,0.0,0.0,-5.878304635907292e-15,3.599423478388456e-31,95.99999999999995,0.0,95.99999999999995,-5.878304635907292e-15,5.878304635907292e-15,0.0,1.5702214546560205,0.8703441948928867,-0.009999999999999994,1.0],"extras":{"id":"51"}},{"name":"Level Level 03 - T.O. Basement Slab [5608]","mesh":13,"matrix":[5.878304635907292e-15,95.99999999999995,0.0,0.0,-5.878304635907292e-15,3.599423478388456e-31,95.99999999999995,0.0,95.99999999999995,-5.878304635907292e-15,5.878304635907292e-15,0.0,1.5702214546560205,0.8703441948928867,-0.07999999999999995,1.0],"extras":{"id":"52"}},{"name":"Level Level 02 - T.O. Footing [5631]","mesh":14,"matrix":[5.878304635907292e-15,95.99999999999995,0.0,0.0,-5.878304635907292e-15,3.599423478388456e-31,95.99999999999995,0.0,95.99999999999995,-5.878304635907292e-15,5.878304635907292e-15,0.0,1.5702214546560205,0.8703441948928867,-0.08999999999999996,1.0],"extras":{"id":"53"}},{"name":"Level Level 01 - B.O. Footing [5661]","mesh":15,"matrix":[5.878304635907292e-15,95.99999999999995,0.0,0.0,-5.878304635907292e-15,3.599423478388456e-31,95.99999999999995,0.0,95.99999999999995,-5.878304635907292e-15,5.878304635907292e-15,0.0,1.5702214546560205,0.8703441948928867,-0.09999999999999994,1.0],"extras":{"id":"54"}},{"name":"Level Roof [8808]","mesh":16,"matrix":[5.878304635907292e-15,95.99999999999995,0.0,0.0,-5.878304635907292e-15,3.599423478388456e-31,95.99999999999995,0.0,95.99999999999995,-5.878304635907292e-15,5.878304635907292e-15,0.0,1.5702214546560205,0.8703441948928867,0.19999999999999988,1.0],"extras":{"id":"55"}},{"name":"D2deets-3DView-{3D}","children":[0,1,2,3,4,5,6,7,8,9,10,11,12,13,14,15,16]}],"scenes":[{"nodes":[17]}],"scene":0}