{"asset":{"version":"2.0","generator":"pv2gltf","copyright":""},"samplers":[{"magFilter":9729,"minFilter":9986,"wrapS":10497,"wrapT":10497}],"materials":[{"name":"__pv_default_material_0__","pbrMetallicRoughness":{"baseColorFactor":[0.6800000071525574,0.6800000071525574,0.6800000071525574,1.0],"metallicFactor":0.5,"roughnessFactor":0.5},"doubleSided":true}],"buffers":[{"uri":"VR_simple.bin","byteLength":214400}],"bufferViews":[{"buffer":0,"byteOffset":0,"byteLength":135024,"byteStride":12,"target":34962},{"buffer":0,"byteOffset":135024,"byteLength":45008,"byteStride":8,"target":34962},{"buffer":0,"byteOffset":180032,"byteLength":34368,"target":34963}],"accessors":[{"bufferView":0,"byteOffset":0,"componentType":5126,"count":5626,"type":"VEC3","min":[-1.4634020328521729,-0.744189977645874,-3.5810539722442629],"max":[1.4634020328521729,1.8954099416732789,0.8721010088920593]},{"bufferView":0,"byteOffset":67512,"componentType":5126,"count":5626,"type":"VEC3"},{"bufferView":1,"byteOffset":0,"componentType":5126,"count":5626,"type":"VEC2"},{"bufferView":2,"byteOffset":0,"componentType":5123,"count":17184,"type":"SCALAR"}],"meshes":[{"name":"VR_simple","primitives":[{"attributes":{"NORMAL":1,"POSITION":0,"TEXCOORD_0":2},"indices":3,"mode":4,"material":0}]}],"nodes":[{"name":"VR_simple","mesh":0}],"scenes":[{"nodes":[0]}],"scene":0}